<mxfile host="app.diagrams.net" modified="2021-12-27T17:51:08.773Z" agent="5.0 (Macintosh)" etag="dP838f6fZcjEawoFbIhR" version="15.9.4" type="github">
  <diagram id="NpRxapIsqfa-SvnayN5d" name="Page-1">
    <mxGraphModel dx="675" dy="401" grid="1" gridSize="10" guides="1" tooltips="1" connect="1" arrows="1" fold="1" page="1" pageScale="1" pageWidth="850" pageHeight="2000" math="0" shadow="0">
      <root>
        <mxCell id="0" />
        <mxCell id="1" parent="0" />
        <mxCell id="RjDeFfzfzhG8dPobCuWy-1" value="ONT PCR Barcoding Protocol for &lt;i&gt;hrp2&lt;/i&gt;" style="text;html=1;strokeColor=none;fillColor=none;align=center;verticalAlign=middle;whiteSpace=wrap;rounded=0;" vertex="1" parent="1">
          <mxGeometry x="20" y="40" width="150" height="30" as="geometry" />
        </mxCell>
        <mxCell id="RjDeFfzfzhG8dPobCuWy-2" value="Custom &lt;i&gt;hrp2 &lt;/i&gt;Barcoding Protocol" style="text;html=1;strokeColor=none;fillColor=none;align=center;verticalAlign=middle;whiteSpace=wrap;rounded=0;" vertex="1" parent="1">
          <mxGeometry x="290" y="40" width="150" height="30" as="geometry" />
        </mxCell>
        <mxCell id="RjDeFfzfzhG8dPobCuWy-3" value="&lt;div style=&quot;font-size: 10px&quot;&gt;&lt;font style=&quot;font-size: 10px&quot;&gt;One-step &lt;i&gt;hrp2 &lt;/i&gt;PCR prep&lt;/font&gt;&lt;/div&gt;" style="shape=step;perimeter=stepPerimeter;whiteSpace=wrap;html=1;fixedSize=1;rotation=90;horizontal=0;spacingLeft=3;spacing=3;spacingTop=7;" vertex="1" parent="1">
          <mxGeometry x="50" y="70" width="60" height="80" as="geometry" />
        </mxCell>
        <mxCell id="RjDeFfzfzhG8dPobCuWy-17" value="&lt;div style=&quot;font-size: 10px&quot;&gt;&lt;font style=&quot;font-size: 10px&quot;&gt;Cleanup&lt;/font&gt;&lt;/div&gt;" style="shape=step;perimeter=stepPerimeter;whiteSpace=wrap;html=1;fixedSize=1;rotation=90;horizontal=0;spacingLeft=3;spacing=3;" vertex="1" parent="1">
          <mxGeometry x="50" y="510" width="60" height="80" as="geometry" />
        </mxCell>
        <mxCell id="RjDeFfzfzhG8dPobCuWy-18" value="&lt;font style=&quot;font-size: 10px&quot;&gt;Barcoding PCR prep&lt;/font&gt;" style="shape=step;perimeter=stepPerimeter;whiteSpace=wrap;html=1;fixedSize=1;rotation=90;horizontal=0;spacingLeft=3;spacing=3;" vertex="1" parent="1">
          <mxGeometry x="38.75" y="560.75" width="82.5" height="80" as="geometry" />
        </mxCell>
        <mxCell id="RjDeFfzfzhG8dPobCuWy-19" value="&lt;font style=&quot;font-size: 10px&quot;&gt;Cleanup&lt;/font&gt;" style="shape=step;perimeter=stepPerimeter;whiteSpace=wrap;html=1;fixedSize=1;rotation=90;horizontal=0;spacingLeft=3;spacing=3;" vertex="1" parent="1">
          <mxGeometry x="50" y="790" width="60" height="80" as="geometry" />
        </mxCell>
        <mxCell id="RjDeFfzfzhG8dPobCuWy-20" value="&lt;font style=&quot;font-size: 10px&quot;&gt;Universal tailing PCR&lt;/font&gt;" style="shape=step;perimeter=stepPerimeter;whiteSpace=wrap;html=1;fixedSize=1;rotation=90;horizontal=0;spacingLeft=3;spacing=3;" vertex="1" parent="1">
          <mxGeometry x="-30" y="390" width="220" height="80" as="geometry" />
        </mxCell>
        <mxCell id="RjDeFfzfzhG8dPobCuWy-22" value="&lt;font style=&quot;font-size: 10px&quot;&gt;Pooling&lt;/font&gt;" style="shape=step;perimeter=stepPerimeter;whiteSpace=wrap;html=1;fixedSize=1;rotation=90;horizontal=0;spacingLeft=3;spacing=3;" vertex="1" parent="1">
          <mxGeometry x="51.25" y="869.25" width="57.5" height="80" as="geometry" />
        </mxCell>
        <mxCell id="RjDeFfzfzhG8dPobCuWy-23" value="&lt;font style=&quot;font-size: 10px&quot;&gt;DNA repair and end-prep&lt;/font&gt;" style="shape=step;perimeter=stepPerimeter;whiteSpace=wrap;html=1;fixedSize=1;rotation=90;horizontal=0;spacingLeft=3;spacing=3;" vertex="1" parent="1">
          <mxGeometry x="45" y="914" width="70" height="80" as="geometry" />
        </mxCell>
        <mxCell id="RjDeFfzfzhG8dPobCuWy-25" value="&lt;div style=&quot;font-size: 10px&quot;&gt;&lt;font style=&quot;font-size: 10px&quot;&gt;Final quantitation&lt;/font&gt;&lt;/div&gt;" style="shape=step;perimeter=stepPerimeter;whiteSpace=wrap;html=1;fixedSize=1;rotation=90;horizontal=0;spacingLeft=3;spacing=3;" vertex="1" parent="1">
          <mxGeometry x="50" y="1001" width="60" height="80" as="geometry" />
        </mxCell>
        <mxCell id="RjDeFfzfzhG8dPobCuWy-26" value="Sequencing" style="rounded=1;whiteSpace=wrap;html=1;" vertex="1" parent="1">
          <mxGeometry x="20" y="1080" width="120" height="60" as="geometry" />
        </mxCell>
        <mxCell id="RjDeFfzfzhG8dPobCuWy-35" value="Sequencing" style="rounded=1;whiteSpace=wrap;html=1;" vertex="1" parent="1">
          <mxGeometry x="300.01" y="800" width="120" height="60" as="geometry" />
        </mxCell>
        <mxCell id="RjDeFfzfzhG8dPobCuWy-36" value="&lt;div style=&quot;font-size: 10px&quot;&gt;&lt;font style=&quot;font-size: 10px&quot;&gt;One-step &lt;i&gt;hrp2 &lt;/i&gt;PCR&lt;br&gt;&lt;/font&gt;&lt;/div&gt;" style="shape=step;perimeter=stepPerimeter;whiteSpace=wrap;html=1;fixedSize=1;rotation=90;horizontal=0;spacingLeft=3;spacing=3;spacingTop=7;" vertex="1" parent="1">
          <mxGeometry x="-30" y="190" width="220" height="80" as="geometry" />
        </mxCell>
        <mxCell id="RjDeFfzfzhG8dPobCuWy-37" value="&lt;div style=&quot;font-size: 10px&quot;&gt;&lt;font style=&quot;font-size: 10px&quot;&gt;Barcoding PCR&lt;/font&gt;&lt;/div&gt;" style="shape=step;perimeter=stepPerimeter;whiteSpace=wrap;html=1;fixedSize=1;rotation=90;horizontal=0;spacingLeft=3;spacing=3;" vertex="1" parent="1">
          <mxGeometry x="-20.62" y="679.38" width="201.25" height="80" as="geometry" />
        </mxCell>
        <mxCell id="RjDeFfzfzhG8dPobCuWy-38" value="&lt;font style=&quot;font-size: 10px&quot;&gt;Quantitation&lt;/font&gt;" style="shape=step;perimeter=stepPerimeter;whiteSpace=wrap;html=1;fixedSize=1;rotation=90;horizontal=0;spacingLeft=3;spacing=3;" vertex="1" parent="1">
          <mxGeometry x="50" y="830" width="60" height="80" as="geometry" />
        </mxCell>
        <mxCell id="RjDeFfzfzhG8dPobCuWy-39" value="&lt;font style=&quot;font-size: 10px&quot;&gt;Adapter ligation and clean-up&lt;/font&gt;" style="shape=step;perimeter=stepPerimeter;whiteSpace=wrap;html=1;fixedSize=1;rotation=90;horizontal=0;spacingLeft=3;spacing=3;" vertex="1" parent="1">
          <mxGeometry x="50" y="960" width="60" height="80" as="geometry" />
        </mxCell>
        <mxCell id="RjDeFfzfzhG8dPobCuWy-40" value="&lt;div style=&quot;font-size: 10px&quot;&gt;&lt;font style=&quot;font-size: 10px&quot;&gt;One-step &lt;i&gt;hrp2 &lt;/i&gt;PCR prep&lt;/font&gt;&lt;/div&gt;" style="shape=step;perimeter=stepPerimeter;whiteSpace=wrap;html=1;fixedSize=1;rotation=90;horizontal=0;spacingLeft=3;spacing=3;spacingTop=7;" vertex="1" parent="1">
          <mxGeometry x="330" y="70" width="60" height="80" as="geometry" />
        </mxCell>
        <mxCell id="RjDeFfzfzhG8dPobCuWy-41" value="&lt;div style=&quot;font-size: 10px&quot;&gt;&lt;font style=&quot;font-size: 10px&quot;&gt;One-step &lt;i&gt;hrp2 &lt;/i&gt;PCR&lt;br&gt;&lt;/font&gt;&lt;/div&gt;" style="shape=step;perimeter=stepPerimeter;whiteSpace=wrap;html=1;fixedSize=1;rotation=90;horizontal=0;spacingLeft=3;spacing=3;spacingTop=7;" vertex="1" parent="1">
          <mxGeometry x="250" y="190" width="220" height="80" as="geometry" />
        </mxCell>
        <mxCell id="RjDeFfzfzhG8dPobCuWy-42" value="&lt;font style=&quot;font-size: 10px&quot;&gt;Barcoding PCR prep&lt;/font&gt;" style="shape=step;perimeter=stepPerimeter;whiteSpace=wrap;html=1;fixedSize=1;rotation=90;horizontal=0;spacingLeft=3;spacing=3;" vertex="1" parent="1">
          <mxGeometry x="318.75" y="320" width="82.5" height="80" as="geometry" />
        </mxCell>
        <mxCell id="RjDeFfzfzhG8dPobCuWy-43" value="&lt;div style=&quot;font-size: 10px&quot;&gt;&lt;font style=&quot;font-size: 10px&quot;&gt;Barcoding PCR&lt;/font&gt;&lt;/div&gt;" style="shape=step;perimeter=stepPerimeter;whiteSpace=wrap;html=1;fixedSize=1;rotation=90;horizontal=0;spacingLeft=3;spacing=3;" vertex="1" parent="1">
          <mxGeometry x="259.38" y="440" width="201.25" height="80" as="geometry" />
        </mxCell>
        <mxCell id="RjDeFfzfzhG8dPobCuWy-44" value="&lt;font style=&quot;font-size: 10px&quot;&gt;Quantitation&lt;/font&gt;" style="shape=step;perimeter=stepPerimeter;whiteSpace=wrap;html=1;fixedSize=1;rotation=90;horizontal=0;spacingLeft=3;spacing=3;" vertex="1" parent="1">
          <mxGeometry x="330.01" y="550" width="60" height="80" as="geometry" />
        </mxCell>
        <mxCell id="RjDeFfzfzhG8dPobCuWy-45" value="&lt;font style=&quot;font-size: 10px&quot;&gt;Pooling&lt;/font&gt;" style="shape=step;perimeter=stepPerimeter;whiteSpace=wrap;html=1;fixedSize=1;rotation=90;horizontal=0;spacingLeft=3;spacing=3;" vertex="1" parent="1">
          <mxGeometry x="331.25" y="590" width="57.5" height="80" as="geometry" />
        </mxCell>
        <mxCell id="RjDeFfzfzhG8dPobCuWy-46" value="&lt;font style=&quot;font-size: 10px&quot;&gt;DNA repair and end-prep&lt;/font&gt;" style="shape=step;perimeter=stepPerimeter;whiteSpace=wrap;html=1;fixedSize=1;rotation=90;horizontal=0;spacingLeft=3;spacing=3;" vertex="1" parent="1">
          <mxGeometry x="325" y="633.75" width="70" height="80" as="geometry" />
        </mxCell>
        <mxCell id="RjDeFfzfzhG8dPobCuWy-47" value="&lt;font style=&quot;font-size: 10px&quot;&gt;Adapter ligation and clean-up&lt;/font&gt;" style="shape=step;perimeter=stepPerimeter;whiteSpace=wrap;html=1;fixedSize=1;rotation=90;horizontal=0;spacingLeft=3;spacing=3;" vertex="1" parent="1">
          <mxGeometry x="330" y="679.38" width="60" height="80" as="geometry" />
        </mxCell>
        <mxCell id="RjDeFfzfzhG8dPobCuWy-48" value="&lt;div style=&quot;font-size: 10px&quot;&gt;&lt;font style=&quot;font-size: 10px&quot;&gt;Final quantitation&lt;/font&gt;&lt;/div&gt;" style="shape=step;perimeter=stepPerimeter;whiteSpace=wrap;html=1;fixedSize=1;rotation=90;horizontal=0;spacingLeft=3;spacing=3;" vertex="1" parent="1">
          <mxGeometry x="330" y="720" width="60" height="80" as="geometry" />
        </mxCell>
      </root>
    </mxGraphModel>
  </diagram>
</mxfile>
